# xmcd
#
# Track frame offsets:
# 150
# 15909
# 32116
# 49423
# 64445
# 83216
# 101945
# 121344
# 140136
# 160948
# 177446
# 194933
# 213188
# 233993
# 249677
# 264128
# 289748
# 310085
#
# Disc length: 4338 seconds
#
#
# Revision: 0
# Processed by: cddbd v1.5.1PL2 Copyright (c) Steve Scherf et al.
# Submitted via: FreeRIP 2.91 
#
DISCID=1110f012
DTITLE=Rascal Flatts - Me And My Gang
DYEAR=1900
DGENRE=
TTITLE0=STAND
TTITLE1=WHAT HURTS THE MOST
TTITLE2=BACKWARDS
TTITLE3=I FEEL BAD
TTITLE4=MY WISH
TTITLE5=PIECES
TTITLE6=YES I DO
TTITLE7=TO MAKE HER LOVE ME
TTITLE8=WORDS I COULDN'T SAY
TTITLE9=ME AND MY GANG
TTITLE10=COOL THING
TTITLE11=ELLSWORTH
TTITLE12=HE AIN'T THE LEAVING KIND
TTITLE13=THIS EVERDAY LOVE
TTITLE14=THEN I DID
TTITLE15=I'M MOVIN ON
TTITLE16=HERE'S TO YOU
TTITLE17=FEELS LIKE TODAY
EXTD=
EXTT0=
EXTT1=
EXTT2=
EXTT3=
EXTT4=
EXTT5=
EXTT6=
EXTT7=
EXTT8=
EXTT9=
EXTT10=
EXTT11=
EXTT12=
EXTT13=
EXTT14=
EXTT15=
EXTT16=
EXTT17=
PLAYORDER=
